<?xml version="1.0" encoding="UTF-8"?>
<!DOCTYPE svg PUBLIC "-//W3C//DTD SVG 1.1//EN" "http://www.w3.org/Graphics/SVG/1.1/DTD/svg11.dtd">
<svg xmlns="http://www.w3.org/2000/svg" version="1.1" width="1000px" height="1000px" style="shape-rendering:geometricPrecision; text-rendering:geometricPrecision; image-rendering:optimizeQuality; fill-rule:evenodd; clip-rule:evenodd" xmlns:xlink="http://www.w3.org/1999/xlink">
<g><path style="opacity:0.841" fill="#b81e2a" d="M 532.5,124.5 C 535.5,124.5 538.5,124.5 541.5,124.5C 541.5,134.167 541.5,143.833 541.5,153.5C 538.086,153.927 535.252,152.927 533,150.5C 532.5,141.84 532.334,133.173 532.5,124.5 Z"/></g>
<g><path style="opacity:0.88" fill="#b81e2a" d="M 502.5,126.5 C 505.5,126.5 508.5,126.5 511.5,126.5C 512.354,135.857 513.354,145.19 514.5,154.5C 511.552,154.777 508.719,154.444 506,153.5C 504.598,144.522 503.432,135.522 502.5,126.5 Z"/></g>
<g><path style="opacity:0.876" fill="#b81e2a" d="M 563.5,126.5 C 566.455,127.159 569.455,127.492 572.5,127.5C 571.002,136.487 569.502,145.487 568,154.5C 565.033,155.811 562.2,155.478 559.5,153.5C 561.019,144.533 562.352,135.533 563.5,126.5 Z"/></g>
<g><path style="opacity:0.87" fill="#b81e2a" d="M 477.5,131.5 C 478.833,131.5 480.167,131.5 481.5,131.5C 483.339,139.856 485.339,148.189 487.5,156.5C 487.392,157.442 487.059,158.275 486.5,159C 484.187,159.662 481.854,160.162 479.5,160.5C 477.56,151.909 475.227,143.409 472.5,135C 473.921,133.377 475.588,132.21 477.5,131.5 Z"/></g>
<g><path style="opacity:0.865" fill="#b81e2a" d="M 593.5,132.5 C 596.707,133.179 599.707,134.346 602.5,136C 599.138,144.28 596.472,152.78 594.5,161.5C 591.794,161.425 589.127,161.092 586.5,160.5C 588.205,151.014 590.538,141.68 593.5,132.5 Z"/></g>
<g><path style="opacity:0.864" fill="#b81e2a" d="M 450.5,140.5 C 451.497,140.47 452.164,140.97 452.5,142C 455.695,150.223 459.028,158.39 462.5,166.5C 459.846,168.614 457.013,169.28 454,168.5C 450.775,160.383 447.275,152.383 443.5,144.5C 445.904,143.157 448.238,141.823 450.5,140.5 Z"/></g>
<g><path style="opacity:0.861" fill="#b81e2a" d="M 622.5,142.5 C 624.722,143.688 627.055,144.688 629.5,145.5C 630.583,146.365 630.749,147.365 630,148.5C 626.404,155.79 622.904,163.124 619.5,170.5C 619,170.833 618.5,171.167 618,171.5C 615.953,170.391 613.787,169.724 611.5,169.5C 614.886,160.393 618.553,151.393 622.5,142.5 Z"/></g>
<g><path style="opacity:0.856" fill="#b81e2a" d="M 422.5,154.5 C 423.675,154.281 424.675,154.614 425.5,155.5C 429.081,162.33 432.914,168.997 437,175.5C 437.121,179.101 435.288,181.435 431.5,182.5C 426.126,174.921 421.126,167.087 416.5,159C 418.389,157.236 420.389,155.736 422.5,154.5 Z"/></g>
<g><path style="opacity:0.855" fill="#b81e2a" d="M 649.5,156.5 C 652.149,158.14 654.816,159.807 657.5,161.5C 652.893,169.728 647.56,177.394 641.5,184.5C 639.118,183.649 637.118,182.316 635.5,180.5C 640.178,172.472 644.845,164.472 649.5,156.5 Z"/></g>
<g><path style="opacity:0.859" fill="#b81e2a" d="M 674.5,174.5 C 677.407,175.734 679.741,177.734 681.5,180.5C 675.519,187.648 669.353,194.648 663,201.5C 660.982,199.65 659.149,197.65 657.5,195.5C 662.935,188.286 668.602,181.286 674.5,174.5 Z"/></g>
<g><path style="opacity:0.88" fill="#b81e2a" d="M 530.5,176.5 C 533.5,176.5 536.5,176.5 539.5,176.5C 539.5,186.167 539.5,195.833 539.5,205.5C 537.119,204.58 534.786,204.58 532.5,205.5C 531.214,195.876 530.547,186.209 530.5,176.5 Z"/></g>
<g><path style="opacity:0.869" fill="#b81e2a" d="M 507.5,178.5 C 508.117,178.611 508.617,178.944 509,179.5C 510.221,187.325 511.388,195.158 512.5,203C 512.441,204.436 512.108,205.769 511.5,207C 509.19,207.497 506.857,207.663 504.5,207.5C 503.347,198.736 501.68,190.069 499.5,181.5C 502.092,180.083 504.759,179.083 507.5,178.5 Z"/></g>
<g><path style="opacity:0.877" fill="#b81e2a" d="M 561.5,179.5 C 563.857,179.337 566.19,179.503 568.5,180C 569.578,180.674 570.245,181.674 570.5,183C 569.046,191.648 567.046,200.148 564.5,208.5C 562.556,207.811 560.556,207.311 558.5,207C 557.941,206.275 557.608,205.442 557.5,204.5C 559.159,196.21 560.493,187.877 561.5,179.5 Z"/></g>
<g><path style="opacity:0.86" fill="#b81e2a" d="M 475.5,186.5 C 476.822,186.33 477.989,186.663 479,187.5C 482.135,196.094 484.968,204.761 487.5,213.5C 484.833,214.167 482.167,214.833 479.5,215.5C 476.858,206.742 473.525,198.242 469.5,190C 471.618,188.918 473.618,187.751 475.5,186.5 Z"/></g>
<g><path style="opacity:0.864" fill="#b81e2a" d="M 592.5,186.5 C 595.622,187.227 598.288,188.727 600.5,191C 597.472,198.89 594.305,206.723 591,214.5C 588.075,215.323 585.242,214.823 582.5,213C 585.701,204.101 589.034,195.268 592.5,186.5 Z"/></g>
<g><path style="opacity:0.855" fill="#b81e2a" d="M 696.5,195.5 C 699.975,196.802 702.142,199.135 703,202.5C 696.294,208.874 689.294,214.874 682,220.5C 680.081,218.309 678.747,215.976 678,213.5C 684.062,207.27 690.229,201.27 696.5,195.5 Z"/></g>
<g><path style="opacity:0.858" fill="#b81e2a" d="M 619.5,200.5 C 623.024,200.929 626.024,202.429 628.5,205C 623.458,212.919 618.291,220.752 613,228.5C 610.667,226.994 608.5,225.327 606.5,223.5C 611.11,215.941 615.444,208.274 619.5,200.5 Z"/></g>
<g><path style="opacity:0.851" fill="#b81e2a" d="M 644.5,218.5 C 647.14,218.954 649.473,220.121 651.5,222C 652.517,223.049 652.684,224.216 652,225.5C 646.284,232.261 640.117,238.594 633.5,244.5C 630.44,242.981 628.94,240.648 629,237.5C 634.781,231.564 639.948,225.23 644.5,218.5 Z"/></g>
<g><path style="opacity:0.86" fill="#b81e2a" d="M 716.5,218.5 C 719.806,220.767 721.14,223.767 720.5,227.5C 713.167,232.167 705.833,236.833 698.5,241.5C 696.219,239.606 695.052,237.272 695,234.5C 702.145,229.024 709.312,223.691 716.5,218.5 Z"/></g>
<g><path style="opacity:0.876" fill="#b81e2a" d="M 549.5,238.5 C 552.127,239.105 554.793,239.605 557.5,240C 558.059,240.725 558.392,241.558 558.5,242.5C 556.446,250.768 554.78,259.101 553.5,267.5C 550.518,267.896 547.851,267.229 545.5,265.5C 546.754,256.46 548.088,247.46 549.5,238.5 Z"/></g>
<g><path style="opacity:0.85" fill="#b81e2a" d="M 666.5,240.5 C 670.394,241.883 672.561,244.549 673,248.5C 665.667,253.833 658.333,259.167 651,264.5C 649.081,262.309 647.747,259.976 647,257.5C 653.478,251.698 659.978,246.031 666.5,240.5 Z"/></g>
<g><path style="opacity:0.865" fill="#b81e2a" d="M 732.5,244.5 C 734.995,247.122 735.995,250.122 735.5,253.5C 727.471,258.018 719.137,261.685 710.5,264.5C 710.523,262.4 709.856,260.567 708.5,259C 708.645,258.228 708.978,257.561 709.5,257C 717.229,252.805 724.895,248.638 732.5,244.5 Z"/></g>
<g><path style="opacity:0.852" fill="#b81e2a" d="M 580.5,247.5 C 583.843,248.059 586.843,249.392 589.5,251.5C 585,259.833 580.5,268.167 576,276.5C 573.75,275.292 571.583,273.959 569.5,272.5C 573.368,264.22 577.035,255.887 580.5,247.5 Z"/></g>
<g><path style="opacity:0.848" fill="#b81e2a" d="M 607.5,264.5 C 611.565,265.404 614.065,267.737 615,271.5C 609.282,277.762 603.449,283.929 597.5,290C 594.538,290.09 592.204,288.757 590.5,286C 596.381,278.958 602.047,271.792 607.5,264.5 Z"/></g>
<g><path style="opacity:0.847" fill="#b81e2a" d="M 683.5,266.5 C 684.675,266.281 685.675,266.614 686.5,267.5C 687.5,269.5 688.5,271.5 689.5,273.5C 682.188,278.159 674.521,282.326 666.5,286C 665.365,286.749 664.365,286.583 663.5,285.5C 662.627,283.587 661.627,281.753 660.5,280C 668.23,275.474 675.896,270.974 683.5,266.5 Z"/></g>
<g><path style="opacity:0.868" fill="#b81e2a" d="M 744.5,272.5 C 746.105,275.12 747.438,277.953 748.5,281C 739.542,284.997 730.376,287.497 721,288.5C 720.55,286.481 719.717,284.648 718.5,283C 727.193,279.385 735.859,275.885 744.5,272.5 Z"/></g>
<g><path style="opacity:0.85" fill="#b81e2a" d="M 629.5,288.5 C 631.945,290.672 633.945,293.338 635.5,296.5C 628.5,300.667 621.5,304.833 614.5,309C 613.241,309.982 611.908,310.315 610.5,310C 608.912,308.013 608.079,305.846 608,303.5C 615.146,298.355 622.312,293.355 629.5,288.5 Z"/></g>
<g><path style="opacity:0.868" fill="#b81e2a" d="M 694.5,295.5 C 695.978,295.238 697.311,295.571 698.5,296.5C 699.776,299.034 700.11,301.534 699.5,304C 690.914,306.308 682.414,308.808 674,311.5C 672.177,308.758 671.677,305.925 672.5,303C 679.979,300.563 687.313,298.063 694.5,295.5 Z"/></g>
<g><path style="opacity:0.873" fill="#b81e2a" d="M 749.5,302.5 C 751.144,302.286 752.644,302.62 754,303.5C 754.567,306.168 755.067,308.834 755.5,311.5C 746.199,313.05 736.866,314.383 727.5,315.5C 726.908,312.873 726.575,310.206 726.5,307.5C 734.42,306.451 742.087,304.785 749.5,302.5 Z"/></g>
<g><path style="opacity:0.924" fill="#5c535b" d="M 260.5,310.5 C 268.833,310.5 277.167,310.5 285.5,310.5C 285.5,314.833 285.5,319.167 285.5,323.5C 275.395,323.051 265.395,323.551 255.5,325C 254.283,326.648 253.45,328.481 253,330.5C 252.501,335.155 252.334,339.821 252.5,344.5C 262.833,344.5 273.167,344.5 283.5,344.5C 283.5,348.5 283.5,352.5 283.5,356.5C 273.167,356.5 262.833,356.5 252.5,356.5C 252.334,361.844 252.501,367.177 253,372.5C 253.394,375.893 255.227,378.06 258.5,379C 267.494,379.5 276.494,379.666 285.5,379.5C 285.5,383.5 285.5,387.5 285.5,391.5C 275.161,391.666 264.828,391.5 254.5,391C 248.159,389.325 243.659,385.492 241,379.5C 239.889,370.224 239.389,360.89 239.5,351.5C 239.389,342.11 239.889,332.776 241,323.5C 245.14,315.52 251.64,311.187 260.5,310.5 Z"/></g>
<g><path style="opacity:0.936" fill="#5c535b" d="M 298.5,310.5 C 303.899,310.309 309.233,310.809 314.5,312C 316.624,313.122 318.457,314.622 320,316.5C 327.55,332.266 334.55,348.266 341,364.5C 341.5,346.503 341.667,328.503 341.5,310.5C 345.833,310.5 350.167,310.5 354.5,310.5C 354.5,337.5 354.5,364.5 354.5,391.5C 349.167,391.5 343.833,391.5 338.5,391.5C 330.235,370.965 321.402,350.632 312,330.5C 311.5,350.831 311.333,371.164 311.5,391.5C 307.167,391.5 302.833,391.5 298.5,391.5C 298.5,364.5 298.5,337.5 298.5,310.5 Z"/></g>
<g><path style="opacity:0.929" fill="#5c535b" d="M 383.5,310.5 C 393.091,309.778 402.425,310.945 411.5,314C 412.022,314.561 412.355,315.228 412.5,316C 411.751,319.611 410.251,322.777 408,325.5C 399.475,321.965 390.975,321.798 382.5,325C 378.097,330.657 378.764,335.657 384.5,340C 392.47,343.433 400.136,347.433 407.5,352C 414.135,359.234 416.302,367.734 414,377.5C 410.888,385.612 405.054,390.445 396.5,392C 385.333,393.554 374.666,392.054 364.5,387.5C 365.313,383.926 366.313,380.426 367.5,377C 372.519,377.553 377.519,378.553 382.5,380C 387.768,381.068 392.768,380.401 397.5,378C 403.286,371.365 402.619,365.365 395.5,360C 388.379,356.939 381.379,353.606 374.5,350C 366.931,343.504 364.431,335.338 367,325.5C 369.741,317.392 375.241,312.392 383.5,310.5 Z"/></g>
<g><path style="opacity:0.938" fill="#5c535b" d="M 447.5,310.5 C 457.125,308.416 463.958,311.749 468,320.5C 474.273,344.095 480.773,367.595 487.5,391C 482.798,391.828 478.131,391.662 473.5,390.5C 471.655,383.455 469.655,376.455 467.5,369.5C 457.856,368.502 448.19,368.168 438.5,368.5C 436.677,376.127 435.01,383.794 433.5,391.5C 428.833,391.5 424.167,391.5 419.5,391.5C 425.684,367.432 432.184,343.432 439,319.5C 440.688,315.315 443.521,312.315 447.5,310.5 Z M 452.5,322.5 C 453.496,322.414 454.329,322.748 455,323.5C 458.012,334.551 461.179,345.551 464.5,356.5C 457.197,357.497 449.863,357.831 442.5,357.5C 445.062,345.582 448.395,333.916 452.5,322.5 Z"/></g>
<g><path style="opacity:0.92" fill="#5c535b" d="M 517.5,310.5 C 525.833,310.5 534.167,310.5 542.5,310.5C 542.5,314.833 542.5,319.167 542.5,323.5C 532.395,323.051 522.395,323.551 512.5,325C 511.137,326.945 510.303,329.112 510,331.5C 509.501,335.821 509.334,340.154 509.5,344.5C 519.833,344.5 530.167,344.5 540.5,344.5C 540.5,348.5 540.5,352.5 540.5,356.5C 530.167,356.5 519.833,356.5 509.5,356.5C 509.334,361.511 509.501,366.511 510,371.5C 510.013,375.368 511.847,377.868 515.5,379C 524.494,379.5 533.494,379.666 542.5,379.5C 542.5,383.5 542.5,387.5 542.5,391.5C 532.161,391.666 521.828,391.5 511.5,391C 504.738,389.237 500.238,385.07 498,378.5C 496.892,369.558 496.392,360.558 496.5,351.5C 496.406,342.118 496.906,332.785 498,323.5C 502.14,315.52 508.64,311.187 517.5,310.5 Z"/></g>
<g><path style="opacity:0.872" fill="#b81e2a" d="M 641.5,318.5 C 642.833,318.5 644.167,318.5 645.5,318.5C 646.321,321.554 646.321,324.554 645.5,327.5C 637.36,329.577 629.193,331.577 621,333.5C 620.055,333.095 619.388,332.428 619,331.5C 618.727,329.899 618.227,328.399 617.5,327C 625.527,324.048 633.527,321.214 641.5,318.5 Z"/></g>
<g><path style="opacity:0.887" fill="#b81e2a" d="M 699.5,325.5 C 701.5,325.5 703.5,325.5 705.5,325.5C 705.5,328.5 705.5,331.5 705.5,334.5C 696.194,335.498 686.861,336.164 677.5,336.5C 677.5,333.833 677.5,331.167 677.5,328.5C 685.056,328.14 692.389,327.14 699.5,325.5 Z"/></g>
<g><path style="opacity:0.878" fill="#b81e2a" d="M 751.5,332.5 C 753.833,332.5 756.167,332.5 758.5,332.5C 758.5,335.5 758.5,338.5 758.5,341.5C 749.18,342.129 739.846,342.462 730.5,342.5C 730.708,340.08 730.374,337.747 729.5,335.5C 736.937,334.216 744.27,333.216 751.5,332.5 Z"/></g>
<g><path style="opacity:0.891" fill="#b81e2a" d="M 621.5,350.5 C 630.833,350.5 640.167,350.5 649.5,350.5C 649.5,353.5 649.5,356.5 649.5,359.5C 640.163,359.255 630.829,358.922 621.5,358.5C 621.5,355.833 621.5,353.167 621.5,350.5 Z"/></g>
<g><path style="opacity:0.881" fill="#b81e2a" d="M 678.5,355.5 C 687.844,355.599 697.177,355.932 706.5,356.5C 706.726,359.249 706.393,361.916 705.5,364.5C 704.167,364.833 702.833,365.167 701.5,365.5C 693.529,364.436 685.529,363.769 677.5,363.5C 677.833,360.833 678.167,358.167 678.5,355.5 Z"/></g>
<g><path style="opacity:0.878" fill="#b81e2a" d="M 729.5,361.5 C 738.531,361.813 747.531,362.48 756.5,363.5C 757.167,363.833 757.833,364.167 758.5,364.5C 757.607,367.084 757.274,369.751 757.5,372.5C 748.188,371.369 738.854,370.369 729.5,369.5C 729.5,366.833 729.5,364.167 729.5,361.5 Z"/></g>
<g><path style="opacity:0.87" fill="#b81e2a" d="M 618.5,375.5 C 627.773,377.37 636.773,380.037 645.5,383.5C 644.82,385.889 643.986,388.222 643,390.5C 642.439,391.022 641.772,391.355 641,391.5C 632.339,388.914 624.173,385.414 616.5,381C 617.077,379.1 617.744,377.267 618.5,375.5 Z"/></g>
<g><path style="opacity:0.867" fill="#b81e2a" d="M 674.5,381.5 C 683.983,383.037 693.316,385.204 702.5,388C 701.287,390.687 700.62,393.52 700.5,396.5C 690.944,394.28 681.611,391.446 672.5,388C 673.397,385.913 674.064,383.746 674.5,381.5 Z"/></g>
<g><path style="opacity:0.879" fill="#b81e2a" d="M 726.5,388.5 C 735.259,389.652 743.926,391.318 752.5,393.5C 753.321,396.446 753.321,399.446 752.5,402.5C 742.955,400.615 733.622,398.115 724.5,395C 725.23,392.846 725.897,390.679 726.5,388.5 Z"/></g>
<g><path style="opacity:0.856" fill="#b81e2a" d="M 665.5,406.5 C 674.802,409.314 683.802,412.981 692.5,417.5C 691.32,420.54 689.653,423.206 687.5,425.5C 679.146,421.659 671.146,417.326 663.5,412.5C 664.747,410.677 665.414,408.677 665.5,406.5 Z"/></g>
<g><path style="opacity:0.856" fill="#b81e2a" d="M 719.5,413.5 C 728.024,416.897 736.69,419.897 745.5,422.5C 745.127,425.574 744.461,428.574 743.5,431.5C 734.029,428.793 725.029,425.126 716.5,420.5C 717.702,418.22 718.702,415.886 719.5,413.5 Z"/></g>
<g><path style="opacity:0.864" fill="#b81e2a" d="M 653.5,429.5 C 661.954,433.898 669.954,439.065 677.5,445C 676.015,447.477 674.181,449.644 672,451.5C 664.094,446.764 656.594,441.43 649.5,435.5C 650.467,433.21 651.8,431.21 653.5,429.5 Z"/></g>
<g><path style="opacity:0.859" fill="#b81e2a" d="M 708.5,438.5 C 717.126,442.479 725.46,446.979 733.5,452C 732.414,454.752 730.914,457.252 729,459.5C 720.884,455.035 713.051,450.202 705.5,445C 706.377,442.747 707.377,440.581 708.5,438.5 Z"/></g>
<g><path style="opacity:0.875" fill="#b81e2a" d="M 636.5,449.5 C 643.911,455.405 650.911,461.905 657.5,469C 655.333,471.167 653.167,473.333 651,475.5C 645.231,468.975 639.231,462.642 633,456.5C 632.333,455.5 632.333,454.5 633,453.5C 634.376,452.295 635.542,450.962 636.5,449.5 Z"/></g>
<g><path style="opacity:0.851" fill="#b81e2a" d="M 694.5,461.5 C 702.122,465.986 709.456,470.986 716.5,476.5C 717.583,477.365 717.749,478.365 717,479.5C 715.471,480.729 714.304,482.229 713.5,484C 712.5,484.667 711.5,484.667 710.5,484C 704,478.833 697.5,473.667 691,468.5C 691.066,465.7 692.233,463.367 694.5,461.5 Z"/></g>
<g><path style="opacity:0.852" fill="#b81e2a" d="M 616.5,466.5 C 617.496,466.414 618.329,466.748 619,467.5C 623.833,474.5 628.667,481.5 633.5,488.5C 631.766,491.2 629.432,493.2 626.5,494.5C 621.418,487.338 616.585,480.005 612,472.5C 611.251,471.365 611.417,470.365 612.5,469.5C 613.901,468.479 615.235,467.479 616.5,466.5 Z"/></g>
<g><path style="opacity:0.862" fill="#b81e2a" d="M 593.5,479.5 C 594.376,479.369 595.043,479.702 595.5,480.5C 599.457,488.206 603.123,496.039 606.5,504C 604.316,506.261 601.65,507.761 598.5,508.5C 594.929,499.952 591.262,491.452 587.5,483C 589.432,481.541 591.432,480.375 593.5,479.5 Z"/></g>
<g><path style="opacity:0.859" fill="#b81e2a" d="M 676.5,482.5 C 677.552,482.351 678.552,482.517 679.5,483C 685.364,489.199 691.531,495.032 698,500.5C 697.454,503.093 695.954,505.26 693.5,507C 692.365,507.749 691.365,507.583 690.5,506.5C 684.848,500.348 679.015,494.348 673,488.5C 672.333,487.833 672.333,487.167 673,486.5C 674.376,485.295 675.542,483.962 676.5,482.5 Z"/></g>
<g><path style="opacity:0.869" fill="#b81e2a" d="M 565.5,488.5 C 567.766,488.141 569.599,488.808 571,490.5C 573.168,498.506 575.335,506.506 577.5,514.5C 574.43,516.399 571.264,517.065 568,516.5C 566.356,507.781 564.523,499.114 562.5,490.5C 563.602,489.824 564.602,489.158 565.5,488.5 Z"/></g>
<g><path style="opacity:0.857" fill="#b81e2a" d="M 657.5,500.5 C 663.789,506.632 669.623,513.299 675,520.5C 675.667,521.5 675.667,522.5 675,523.5C 673.255,524.956 671.422,526.289 669.5,527.5C 663.841,521.004 658.341,514.337 653,507.5C 652.333,506.5 652.333,505.5 653,504.5C 654.667,503.267 656.167,501.933 657.5,500.5 Z"/></g>
<g><path style="opacity:0.855" fill="#b81e2a" d="M 634.5,516.5 C 636.592,516.561 638.092,517.561 639,519.5C 642.966,525.934 646.799,532.434 650.5,539C 648.991,541.769 646.657,543.603 643.5,544.5C 638.833,536.5 634.167,528.5 629.5,520.5C 631.015,518.918 632.681,517.584 634.5,516.5 Z"/></g>
<g><path style="opacity:0.863" fill="#b81e2a" d="M 610.5,528.5 C 611.675,528.281 612.675,528.614 613.5,529.5C 616.696,537.391 620.029,545.225 623.5,553C 623.355,553.772 623.022,554.439 622.5,555C 620.385,555.557 618.385,556.391 616.5,557.5C 611.874,548.971 608.207,539.971 605.5,530.5C 607.553,530.598 609.22,529.931 610.5,528.5 Z"/></g>
<g><path style="opacity:0.871" fill="#b81e2a" d="M 584.5,537.5 C 585.822,537.33 586.989,537.663 588,538.5C 590.167,546.5 592.333,554.5 594.5,562.5C 594.392,563.442 594.059,564.275 593.5,565C 590.943,566.119 588.443,566.285 586,565.5C 583.903,556.946 581.737,548.446 579.5,540C 581.175,539.015 582.842,538.181 584.5,537.5 Z"/></g>
<g><path style="opacity:0.879" fill="#b81e2a" d="M 558.5,542.5 C 559.5,542.5 560.5,542.5 561.5,542.5C 562.335,550.512 563.335,558.512 564.5,566.5C 564.167,567.833 563.833,569.167 563.5,570.5C 560.916,571.393 558.249,571.726 555.5,571.5C 554.966,562.157 554.299,552.823 553.5,543.5C 555.415,543.784 557.081,543.451 558.5,542.5 Z"/></g>
<g><path style="opacity:0.89" fill="#b81e2a" d="M 526.5,544.5 C 529.167,544.5 531.833,544.5 534.5,544.5C 534.5,553.833 534.5,563.167 534.5,572.5C 531.5,572.5 528.5,572.5 525.5,572.5C 525.667,563.159 526,553.826 526.5,544.5 Z"/></g>
<g><path style="opacity:0.956" fill="#5c535b" d="M 239.5,676.5 C 412.5,676.5 585.5,676.5 758.5,676.5C 758.5,678.5 758.5,680.5 758.5,682.5C 585.5,682.5 412.5,682.5 239.5,682.5C 239.5,680.5 239.5,678.5 239.5,676.5 Z"/></g>
<g><path style="opacity:0.636" fill="#5c535b" d="M 307.5,717.5 C 310.292,717.452 312.125,718.785 313,721.5C 313.691,718.409 315.524,717.243 318.5,718C 315.429,721.235 314.095,725.068 314.5,729.5C 313.5,729.5 312.5,729.5 311.5,729.5C 311.66,727.801 311.494,726.134 311,724.5C 309.121,722.473 307.954,720.14 307.5,717.5 Z"/></g>
<g><path style="opacity:0.674" fill="#5c535b" d="M 321.5,717.5 C 324.518,717.704 327.518,718.037 330.5,718.5C 330.5,719.5 330.5,720.5 330.5,721.5C 329.5,721.5 328.5,721.5 327.5,721.5C 326.908,724.127 326.575,726.794 326.5,729.5C 325.5,729.5 324.5,729.5 323.5,729.5C 323.704,726.482 324.037,723.482 324.5,720.5C 323.5,720.5 322.5,720.5 321.5,720.5C 321.5,719.5 321.5,718.5 321.5,717.5 Z"/></g>
<g><path style="opacity:0.641" fill="#5c535b" d="M 296.5,719.5 C 297.675,719.281 298.675,719.614 299.5,720.5C 300.167,722.5 300.833,724.5 301.5,726.5C 303.006,727.747 304.506,727.747 306,726.5C 306.692,727.025 307.192,727.692 307.5,728.5C 305.184,729.932 302.684,730.932 300,731.5C 298.27,727.701 297.104,723.701 296.5,719.5 Z"/></g>
<g><path style="opacity:0.658" fill="#5c535b" d="M 336.5,719.5 C 338.993,720.774 341.659,721.44 344.5,721.5C 344.5,722.5 344.5,723.5 344.5,724.5C 342.738,724.643 341.071,724.309 339.5,723.5C 338.304,723.846 338.304,724.346 339.5,725C 340.448,725.483 341.448,725.649 342.5,725.5C 342.5,726.5 342.5,727.5 342.5,728.5C 340.326,728.08 338.326,728.08 336.5,728.5C 337.991,729.244 339.491,729.91 341,730.5C 341.667,731.5 341.667,732.5 341,733.5C 338.618,732.446 336.118,731.779 333.5,731.5C 333.686,727.279 334.686,723.279 336.5,719.5 Z"/></g>
<g><path style="opacity:0.691" fill="#5c535b" d="M 285.5,723.5 C 292.56,722.725 295.06,725.725 293,732.5C 290.029,736.092 286.696,736.425 283,733.5C 282.333,730.833 282.333,728.167 283,725.5C 283.995,724.934 284.828,724.267 285.5,723.5 Z M 286.5,726.5 C 290.35,726.701 291.35,728.534 289.5,732C 286.888,732.741 285.222,731.741 284.5,729C 285.381,728.292 286.047,727.458 286.5,726.5 Z"/></g>
<g><path style="opacity:0.671" fill="#5c535b" d="M 349.5,726.5 C 352.97,725.875 355.804,726.875 358,729.5C 358.591,730.483 358.257,731.15 357,731.5C 354.851,729.542 352.518,729.209 350,730.5C 349.168,734.143 350.668,735.81 354.5,735.5C 354.5,736.5 354.5,737.5 354.5,738.5C 348.127,738.632 345.627,735.632 347,729.5C 347.698,728.309 348.531,727.309 349.5,726.5 Z"/></g>
<g><path style="opacity:0.676" fill="#5c535b" d="M 273.5,730.5 C 276.532,730.178 278.199,731.511 278.5,734.5C 278.514,736.611 277.848,738.445 276.5,740C 278.045,741.641 277.711,742.807 275.5,743.5C 272.815,740.81 270.482,737.81 268.5,734.5C 270.21,733.113 271.877,731.779 273.5,730.5 Z M 274.5,733.5 C 275.776,734.386 275.776,735.386 274.5,736.5C 271.955,735.451 271.955,734.451 274.5,733.5 Z"/></g>
<g><path style="opacity:0.655" fill="#5c535b" d="M 363.5,732.5 C 365.863,734.083 365.863,735.916 363.5,738C 363.833,738.333 364.167,738.667 364.5,739C 366.519,738.848 368.519,738.348 370.5,737.5C 370.046,740.14 368.879,742.473 367,744.5C 365.887,746.329 364.387,747.163 362.5,747C 362.5,745 362.5,743 362.5,741C 360.893,740.885 359.393,741.385 358,742.5C 357.5,742.167 357,741.833 356.5,741.5C 358.475,738.195 360.809,735.195 363.5,732.5 Z"/></g>
<g><path style="opacity:0.946" fill="#5c535b" d="M 315.5,738.5 C 340.598,739.199 358.598,750.699 369.5,773C 360.107,766.992 350.607,760.825 341,754.5C 332.584,766.334 324.417,778.334 316.5,790.5C 301.838,780.5 286.838,771 271.5,762C 282.696,747.57 297.363,739.737 315.5,738.5 Z"/></g>
<g><path style="opacity:0.679" fill="#5c535b" d="M 374.5,744.5 C 375.5,744.5 376.5,744.5 377.5,744.5C 376.992,747.176 376.825,749.843 377,752.5C 378.019,751.313 379.186,750.313 380.5,749.5C 380.833,750.167 381.167,750.833 381.5,751.5C 379.477,754.52 376.81,756.854 373.5,758.5C 372.5,758.167 371.833,757.5 371.5,756.5C 372.093,754.618 372.76,752.785 373.5,751C 371.65,751.595 369.65,752.095 367.5,752.5C 367.281,751.325 367.614,750.325 368.5,749.5C 370.571,747.815 372.571,746.148 374.5,744.5 Z"/></g>
<g><path style="opacity:0.886" fill="#5c535b" d="M 254.5,747.5 C 264.11,747.936 266.776,752.436 262.5,761C 253.598,764.651 249.432,761.818 250,752.5C 251.025,750.313 252.525,748.646 254.5,747.5 Z"/></g>
<g><path style="opacity:0.648" fill="#5c535b" d="M 383.5,757.5 C 385.973,757.604 386.639,758.604 385.5,760.5C 382.36,762.406 379.027,763.74 375.5,764.5C 375.281,763.325 375.614,762.325 376.5,761.5C 379.059,760.392 381.392,759.059 383.5,757.5 Z"/></g>
<g><path style="opacity:0.957" fill="#5c535b" d="M 268.5,766.5 C 271.09,767.128 273.423,768.295 275.5,770C 287.852,779.026 300.186,788.026 312.5,797C 303.381,812.068 294.381,827.235 285.5,842.5C 262.825,825.303 255.658,802.97 264,775.5C 265.513,772.473 267.013,769.473 268.5,766.5 Z"/></g>
<g><path style="opacity:0.943" fill="#5c535b" d="M 342.5,766.5 C 349.373,770.193 355.873,774.526 362,779.5C 368.343,792.476 364.843,801.643 351.5,807C 348.101,807.546 344.768,807.213 341.5,806C 335.331,802.416 329.331,798.583 323.5,794.5C 329.859,785.149 336.192,775.815 342.5,766.5 Z"/></g>
<g><path style="opacity:0.688" fill="#5c535b" d="M 382.5,766.5 C 391.487,765.665 393.82,769.165 389.5,777C 387.541,777.931 385.541,778.764 383.5,779.5C 379.003,775.393 378.67,771.06 382.5,766.5 Z M 386.5,774.5 C 386.53,773.503 386.03,772.836 385,772.5C 383.899,773.291 383.066,773.291 382.5,772.5C 384.673,768.557 386.673,768.557 388.5,772.5C 388.253,773.713 387.586,774.38 386.5,774.5 Z"/></g>
<g><path style="opacity:0.908" fill="#5c535b" d="M 593.5,770.5 C 597.226,770.177 600.893,770.511 604.5,771.5C 611.462,787.752 618.129,804.085 624.5,820.5C 620.445,820.824 616.445,820.491 612.5,819.5C 611.167,816.5 609.833,813.5 608.5,810.5C 601.833,809.167 595.167,809.167 588.5,810.5C 587.441,813.618 586.108,816.618 584.5,819.5C 580.5,820.833 576.5,820.833 572.5,819.5C 579.702,803.22 586.702,786.886 593.5,770.5 Z M 598.5,786.5 C 600.386,790.624 602.386,794.791 604.5,799C 600.848,799.499 597.182,799.665 593.5,799.5C 594.576,794.939 596.243,790.605 598.5,786.5 Z"/></g>
<g><path style="opacity:0.914" fill="#5c535b" d="M 734.5,770.5 C 739.913,770.229 745.246,770.729 750.5,772C 753.726,773.106 756.393,774.939 758.5,777.5C 756.853,780.473 754.853,783.14 752.5,785.5C 748.724,783.278 744.724,781.612 740.5,780.5C 733.131,782.735 732.798,785.569 739.5,789C 744.764,789.899 749.764,791.565 754.5,794C 756.378,795.543 757.878,797.376 759,799.5C 761.932,809.805 758.432,816.639 748.5,820C 739.995,821.491 731.995,820.157 724.5,816C 723.101,814.938 722.101,813.605 721.5,812C 723.296,809.367 725.296,806.867 727.5,804.5C 733.145,809.448 739.478,810.948 746.5,809C 749.475,805.284 748.475,802.951 743.5,802C 738.363,800.732 733.363,799.066 728.5,797C 720.397,788.712 720.73,780.712 729.5,773C 731.315,772.243 732.981,771.41 734.5,770.5 Z"/></g>
<g><path style="opacity:0.656" fill="#5c535b" d="M 242.5,771.5 C 243.5,771.5 244.5,771.5 245.5,771.5C 245.67,772.822 245.337,773.989 244.5,775C 246.788,775.822 249.122,776.489 251.5,777C 252.731,778.183 252.731,779.349 251.5,780.5C 248.979,779.215 246.313,778.548 243.5,778.5C 243.105,782.302 242.105,782.469 240.5,779C 241.479,776.567 242.145,774.067 242.5,771.5 Z"/></g>
<g><path style="opacity:0.882" fill="#5c535b" d="M 425.5,771.5 C 429.5,771.5 433.5,771.5 437.5,771.5C 437.5,787.833 437.5,804.167 437.5,820.5C 433.5,820.5 429.5,820.5 425.5,820.5C 425.5,804.167 425.5,787.833 425.5,771.5 Z"/></g>
<g><path style="opacity:0.919" fill="#5c535b" d="M 456.5,771.5 C 465.506,771.334 474.506,771.5 483.5,772C 495.717,777.409 498.884,786.243 493,798.5C 486.119,804.929 477.952,807.262 468.5,805.5C 468.5,810.5 468.5,815.5 468.5,820.5C 464.5,820.5 460.5,820.5 456.5,820.5C 456.5,804.167 456.5,787.833 456.5,771.5 Z M 468.5,781.5 C 471.85,781.335 475.183,781.502 478.5,782C 483.038,783.664 484.538,786.831 483,791.5C 481.786,793.049 480.286,794.215 478.5,795C 475.183,795.498 471.85,795.665 468.5,795.5C 468.5,790.833 468.5,786.167 468.5,781.5 Z"/></g>
<g><path style="opacity:0.927" fill="#5c535b" d="M 528.5,771.5 C 537.839,771.334 547.173,771.5 556.5,772C 566.548,776.269 570.048,783.769 567,794.5C 564.692,800.136 560.525,803.636 554.5,805C 549.845,805.499 545.179,805.666 540.5,805.5C 540.5,810.5 540.5,815.5 540.5,820.5C 536.5,820.5 532.5,820.5 528.5,820.5C 528.5,804.167 528.5,787.833 528.5,771.5 Z M 540.5,781.5 C 544.936,781.21 549.27,781.71 553.5,783C 557.5,786.667 557.5,790.333 553.5,794C 549.27,795.29 544.936,795.79 540.5,795.5C 540.5,790.833 540.5,786.167 540.5,781.5 Z"/></g>
<g><path style="opacity:0.915" fill="#5c535b" d="M 636.5,771.5 C 646.506,771.334 656.506,771.5 666.5,772C 676.453,775.799 679.953,782.966 677,793.5C 675.248,797.588 672.415,800.754 668.5,803C 672.043,808.586 675.709,814.086 679.5,819.5C 674.833,820.833 670.167,820.833 665.5,819.5C 662.362,814.529 659.028,809.696 655.5,805C 653.19,804.503 650.857,804.337 648.5,804.5C 648.5,809.833 648.5,815.167 648.5,820.5C 644.5,820.5 640.5,820.5 636.5,820.5C 636.5,804.167 636.5,787.833 636.5,771.5 Z M 648.5,781.5 C 652.846,781.334 657.179,781.501 661.5,782C 668.167,786 668.167,790 661.5,794C 657.179,794.499 652.846,794.666 648.5,794.5C 648.5,790.167 648.5,785.833 648.5,781.5 Z"/></g>
<g><path style="opacity:0.882" fill="#5c535b" d="M 694.5,771.5 C 698.5,771.5 702.5,771.5 706.5,771.5C 706.5,787.833 706.5,804.167 706.5,820.5C 702.5,820.5 698.5,820.5 694.5,820.5C 694.5,804.167 694.5,787.833 694.5,771.5 Z"/></g>
<g><path style="opacity:0.677" fill="#5c535b" d="M 390.5,781.5 C 391.833,781.5 393.167,781.5 394.5,781.5C 394.5,782.5 394.5,783.5 394.5,784.5C 391.833,784.833 389.167,785.167 386.5,785.5C 386.33,786.822 386.663,787.989 387.5,789C 390.157,789.175 392.824,789.008 395.5,788.5C 395.5,789.5 395.5,790.5 395.5,791.5C 393.304,791.59 391.137,791.923 389,792.5C 383.911,792.073 382.244,789.406 384,784.5C 386.045,783.074 388.212,782.074 390.5,781.5 Z"/></g>
<g><path style="opacity:0.723" fill="#5c535b" d="M 239.5,785.5 C 242.91,785.457 246.243,785.957 249.5,787C 250.833,789.667 250.833,792.333 249.5,795C 246.183,795.498 242.85,795.665 239.5,795.5C 239.5,794.5 239.5,793.5 239.5,792.5C 241.591,792.318 243.591,792.652 245.5,793.5C 248.619,792.306 248.952,790.806 246.5,789C 244.19,788.503 241.857,788.337 239.5,788.5C 239.5,787.5 239.5,786.5 239.5,785.5 Z"/></g>
<g><path style="opacity:0.689" fill="#5c535b" d="M 384.5,796.5 C 388.135,797.114 391.802,797.448 395.5,797.5C 395.777,800.448 395.444,803.281 394.5,806C 394.167,806.167 393.833,806.333 393.5,806.5C 392.833,804.5 392.167,802.5 391.5,800.5C 390.833,802.167 390.167,803.833 389.5,805.5C 387.886,797.602 386.886,797.602 386.5,805.5C 385.5,805.5 384.5,805.5 383.5,805.5C 383.368,802.43 383.701,799.43 384.5,796.5 Z"/></g>
<g><path style="opacity:0.953" fill="#5c535b" d="M 372.5,797.5 C 372.846,817.403 364.513,832.903 347.5,844C 327.284,855.474 307.284,855.307 287.5,843.5C 298.199,829.935 308.532,816.101 318.5,802C 319.5,801.333 320.5,801.333 321.5,802C 326.558,806.057 331.892,809.724 337.5,813C 351.444,818.224 362.61,814.724 371,802.5C 372.009,800.975 372.509,799.308 372.5,797.5 Z"/></g>
<g><path style="opacity:0.723" fill="#5c535b" d="M 239.5,800.5 C 241.344,801.16 243.01,802.16 244.5,803.5C 247.251,801.857 249.584,802.19 251.5,804.5C 248.562,805.489 245.562,806.156 242.5,806.5C 242.719,807.675 242.386,808.675 241.5,809.5C 239.73,806.807 239.063,803.807 239.5,800.5 Z"/></g>
<g><path style="opacity:0.634" fill="#5c535b" d="M 251.5,811.5 C 252.267,812.172 252.934,813.005 253.5,814C 249.673,815.79 245.673,816.956 241.5,817.5C 241.281,816.325 241.614,815.325 242.5,814.5C 245.662,813.635 248.662,812.635 251.5,811.5 Z"/></g>
<g><path style="opacity:0.639" fill="#5c535b" d="M 254.5,820.5 C 255.478,820.811 256.145,821.478 256.5,822.5C 254.268,824.645 251.601,826.145 248.5,827C 249.337,828.011 249.67,829.178 249.5,830.5C 248.325,830.719 247.325,830.386 246.5,829.5C 245.695,827.085 244.695,824.751 243.5,822.5C 245.365,821.334 247.032,821.667 248.5,823.5C 250.78,822.864 252.78,821.864 254.5,820.5 Z"/></g>
<g><path style="opacity:0.769" fill="#5c535b" d="M 379.5,820.5 C 381.411,820.574 382.578,821.574 383,823.5C 386.413,821.963 388.246,823.129 388.5,827C 388.694,830.788 387.027,833.288 383.5,834.5C 382.614,833.675 382.281,832.675 382.5,831.5C 376.933,832.247 375.1,829.913 377,824.5C 377.662,823.016 378.496,821.683 379.5,820.5 Z"/></g>
<g><path style="opacity:0.669" fill="#5c535b" d="M 255.5,830.5 C 260.833,829.833 263.167,832.167 262.5,837.5C 261.5,837.5 260.5,837.5 259.5,837.5C 259.762,836.022 259.429,834.689 258.5,833.5C 258.167,833.667 257.833,833.833 257.5,834C 258.423,836.041 258.756,838.208 258.5,840.5C 253.925,841.657 251.258,839.99 250.5,835.5C 251,835.167 251.5,834.833 252,834.5C 253.477,835.444 254.477,836.777 255,838.5C 254.482,835.777 254.649,833.111 255.5,830.5 Z"/></g>
<g><path style="opacity:0.748" fill="#5c535b" d="M 371.5,833.5 C 375.465,834.825 378.799,837.159 381.5,840.5C 380.919,842.724 379.586,843.557 377.5,843C 374.833,841 372.167,839 369.5,837C 370.305,835.887 370.972,834.721 371.5,833.5 Z"/></g>
<g><path style="opacity:0.682" fill="#5c535b" d="M 265.5,839.5 C 267.22,841.658 268.053,844.325 268,847.5C 269.019,846.313 270.186,845.313 271.5,844.5C 272.5,844.833 273.167,845.5 273.5,846.5C 271.167,849.5 268.5,852.167 265.5,854.5C 264.119,854 263.453,853 263.5,851.5C 264.331,849.527 264.498,847.527 264,845.5C 262.677,848.059 260.843,848.725 258.5,847.5C 260.856,844.814 263.189,842.147 265.5,839.5 Z"/></g>
<g><path style="opacity:0.778" fill="#5c535b" d="M 363.5,842.5 C 367.445,841.573 370.112,842.906 371.5,846.5C 372.908,847.243 374.241,848.077 375.5,849C 372.646,851.688 369.646,854.188 366.5,856.5C 364.016,853.516 361.35,850.682 358.5,848C 360.373,846.296 362.04,844.463 363.5,842.5 Z"/></g>
<g><path style="opacity:0.632" fill="#5c535b" d="M 276.5,849.5 C 277.995,849.415 278.995,850.081 279.5,851.5C 277.527,854.64 275.36,857.64 273,860.5C 272.13,859.892 271.63,859.059 271.5,858C 273.045,855.073 274.712,852.24 276.5,849.5 Z"/></g>
<g><path style="opacity:0.798" fill="#5c535b" d="M 350.5,852.5 C 354.983,853.921 358.65,856.587 361.5,860.5C 359.49,862.171 357.157,862.838 354.5,862.5C 354.17,865.109 352.67,866.776 350,867.5C 349.5,864 349,860.5 348.5,857C 348.759,855.213 349.425,853.713 350.5,852.5 Z"/></g>
<g><path style="opacity:0.794" fill="#5c535b" d="M 293.5,858.5 C 302.542,858.333 305.208,862.167 301.5,870C 297.952,871.746 294.452,871.579 291,869.5C 291.341,865.795 292.175,862.128 293.5,858.5 Z M 297.5,863.5 C 298.776,864.386 298.776,865.386 297.5,866.5C 296.438,865.575 296.438,864.575 297.5,863.5 Z"/></g>
<g><path style="opacity:0.807" fill="#5c535b" d="M 337.5,858.5 C 341.099,857.938 343.099,859.438 343.5,863C 341.771,865.678 340.438,868.512 339.5,871.5C 337.833,871.5 336.167,871.5 334.5,871.5C 334.252,868.42 333.586,865.42 332.5,862.5C 332.608,861.558 332.941,860.725 333.5,860C 335.058,859.79 336.391,859.29 337.5,858.5 Z"/></g>
<g><path style="opacity:0.789" fill="#5c535b" d="M 309.5,861.5 C 312.833,861.833 316.167,862.167 319.5,862.5C 319.326,864.861 318.993,867.194 318.5,869.5C 317.448,869.351 316.448,869.517 315.5,870C 316.833,870.333 318.167,870.667 319.5,871C 318.663,872.011 318.33,873.178 318.5,874.5C 315.193,873.949 311.86,873.616 308.5,873.5C 308.237,869.4 308.57,865.4 309.5,861.5 Z"/></g>
</svg>
