<?xml version="1.0" encoding="UTF-8"?>
<!DOCTYPE svg PUBLIC "-//W3C//DTD SVG 1.1//EN" "http://www.w3.org/Graphics/SVG/1.1/DTD/svg11.dtd">
<svg xmlns="http://www.w3.org/2000/svg" version="1.1" width="351px" height="173px" style="shape-rendering:geometricPrecision; text-rendering:geometricPrecision; image-rendering:optimizeQuality; fill-rule:evenodd; clip-rule:evenodd" xmlns:xlink="http://www.w3.org/1999/xlink">
<g><path style="opacity:1" fill="#fefdfd" d="M -0.5,-0.5 C 116.5,-0.5 233.5,-0.5 350.5,-0.5C 350.5,57.1667 350.5,114.833 350.5,172.5C 233.5,172.5 116.5,172.5 -0.5,172.5C -0.5,114.833 -0.5,57.1667 -0.5,-0.5 Z"/></g>
<g><path style="opacity:1" fill="#fd1917" d="M 130.5,22.5 C 155.408,22.1722 180.241,22.5055 205,23.5C 205.827,48.4057 205.661,73.239 204.5,98C 179.594,98.8274 154.761,98.6607 130,97.5C 129.177,72.4277 129.344,47.4277 130.5,22.5 Z"/></g>
<g><path style="opacity:1" fill="#faf6f8" d="M 133.5,27.5 C 155.833,27.5 178.167,27.5 200.5,27.5C 200.5,49.8333 200.5,72.1667 200.5,94.5C 200.5,72.1667 200.5,49.8333 200.5,27.5C 178.167,27.5 155.833,27.5 133.5,27.5 Z"/></g>
<g><path style="opacity:1" fill="#ebcadd" d="M 133.5,27.5 C 155.994,26.5025 178.661,26.1692 201.5,26.5C 201.831,49.3395 201.497,72.0061 200.5,94.5C 200.5,72.1667 200.5,49.8333 200.5,27.5C 178.167,27.5 155.833,27.5 133.5,27.5 Z"/></g>
<g><path style="opacity:1" fill="#fc1310" d="M 150.5,34.5 C 151.511,37.2302 153.178,37.8968 155.5,36.5C 157.606,36.7622 158.773,37.7622 159,39.5C 156.959,40.4231 154.792,40.7564 152.5,40.5C 152.018,43.8306 153.018,46.4973 155.5,48.5C 154.163,45.3126 155.163,44.646 158.5,46.5C 160.075,48.1137 160.741,50.1137 160.5,52.5C 160.5,54.8333 160.5,57.1667 160.5,59.5C 162.5,59.5 164.5,59.5 166.5,59.5C 169.5,59.5 172.5,59.5 175.5,59.5C 175.768,57.901 175.434,56.5676 174.5,55.5C 174.19,52.2869 174.523,49.2869 175.5,46.5C 175.435,46.9382 175.601,47.2716 176,47.5C 180.192,44.4969 181.025,44.9969 178.5,49C 177.552,49.4828 176.552,49.6495 175.5,49.5C 175.372,51.6547 175.872,53.6547 177,55.5C 178.484,52.0083 179.984,48.5083 181.5,45C 181.167,44.1667 180.833,43.3333 180.5,42.5C 179.604,43.5063 178.938,43.5063 178.5,42.5C 182.758,40.0957 182.425,38.4291 177.5,37.5C 179.423,36.6922 181.423,36.1922 183.5,36C 182.5,35.6667 181.5,35.3333 180.5,35C 185.321,32.1064 188.655,33.2731 190.5,38.5C 190.588,42.2699 189.588,45.9366 187.5,49.5C 188.71,53.1277 189.71,56.7944 190.5,60.5C 191.5,60.5 192.5,60.5 193.5,60.5C 192.833,57.1667 192.167,53.8333 191.5,50.5C 193.303,53.3904 194.636,56.5571 195.5,60C 194.138,62.4388 192.305,62.9388 190,61.5C 189.126,64.0031 189.793,66.0031 192,67.5C 192.333,69.8333 192.667,72.1667 193,74.5C 193.806,71.5544 195.139,68.8877 197,66.5C 197.291,72.2175 194.958,76.5508 190,79.5C 185.088,77.6255 180.255,75.6255 175.5,73.5C 174.486,72.3263 173.153,71.6596 171.5,71.5C 170.637,72.463 169.97,72.463 169.5,71.5C 170.167,70.5 170.833,69.5 171.5,68.5C 174.613,67.6195 177.613,66.6195 180.5,65.5C 180.337,63.1432 180.503,60.8098 181,58.5C 181.414,58.0426 181.914,57.7093 182.5,57.5C 183.184,61.8835 183.517,66.2168 183.5,70.5C 190.021,72.1275 190.854,70.7942 186,66.5C 185.703,63.086 185.036,59.7527 184,56.5C 183.439,55.9781 182.772,55.6448 182,55.5C 180.037,56.6254 178.204,57.9587 176.5,59.5C 176.709,60.086 177.043,60.586 177.5,61C 171.163,60.2526 164.83,60.4193 158.5,61.5C 157.336,58.8135 155.503,56.4801 153,54.5C 152.5,55 152,55.5 151.5,56C 154.74,58.6144 156.073,61.7811 155.5,65.5C 157.982,66.8972 160.648,67.7306 163.5,68C 164.305,69.1127 164.972,70.2794 165.5,71.5C 163.102,71.2594 161.102,71.9261 159.5,73.5C 155.073,75.4743 150.573,77.1409 146,78.5C 143.167,78.4625 141.333,77.1292 140.5,74.5C 141.675,74.719 142.675,74.3857 143.5,73.5C 143.376,72.8933 143.043,72.56 142.5,72.5C 142.34,70.8008 142.506,69.1341 143,67.5C 145.428,65.7949 145.928,63.7949 144.5,61.5C 144.773,57.1768 145.773,53.0102 147.5,49C 146.351,47.2703 146.351,45.6037 147.5,44C 146.833,43.6667 146.167,43.3333 145.5,43C 146.288,39.9243 146.788,36.7577 147,33.5C 148.145,33.6191 149.312,33.9524 150.5,34.5 Z"/></g>
<g><path style="opacity:1" fill="#ec8ea4" d="M 150.5,34.5 C 152.553,34.4021 154.22,35.0687 155.5,36.5C 153.178,37.8968 151.511,37.2302 150.5,34.5 Z"/></g>
<g><path style="opacity:1" fill="#fc0a0d" d="M 144.5,61.5 C 141.4,63.2428 139.567,62.2428 139,58.5C 137.283,52.7731 137.283,47.1064 139,41.5C 140.667,42.8333 142.333,44.1667 144,45.5C 144.13,49.9639 143.297,54.2972 141.5,58.5C 141.868,60.1753 142.868,61.1753 144.5,61.5 Z"/></g>
<g><path style="opacity:1" fill="#fc1b18" d="M 191.5,50.5 C 190.387,49.0536 190.22,47.3869 191,45.5C 195.146,40.3988 196.979,41.5655 196.5,49C 196.167,50.5 195.833,52 195.5,53.5C 194.833,50.8333 194.167,48.1667 193.5,45.5C 191.783,46.6685 191.116,48.3352 191.5,50.5 Z"/></g>
<g><path style="opacity:1" fill="#f15f68" d="M 161.5,44.5 C 161.806,47.3854 161.473,50.0521 160.5,52.5C 160.741,50.1137 160.075,48.1137 158.5,46.5C 159.222,45.4489 160.222,44.7822 161.5,44.5 Z"/></g>
<g><path style="opacity:1" fill="#f7dde4" d="M 155.5,48.5 C 156.583,48.5394 157.583,48.8728 158.5,49.5C 159.833,51.5 159.833,53.5 158.5,55.5C 156.673,53.5128 155.673,51.1795 155.5,48.5 Z"/></g>
<g><path style="opacity:1" fill="#f48181" d="M 164.5,45.5 C 166.5,45.5 168.5,45.5 170.5,45.5C 171.239,45.369 171.906,45.5357 172.5,46C 171.207,46.49 169.873,46.6567 168.5,46.5C 168.5,48.5 168.5,50.5 168.5,52.5C 175.167,52.8333 175.167,53.1667 168.5,53.5C 168.477,56.1213 169.811,57.4546 172.5,57.5C 173.713,57.2528 174.38,56.5862 174.5,55.5C 175.434,56.5676 175.768,57.901 175.5,59.5C 172.5,59.5 169.5,59.5 166.5,59.5C 166.631,58.7611 166.464,58.0944 166,57.5C 164.612,58.5536 163.112,58.7203 161.5,58C 163.5,57.3333 165.5,56.6667 167.5,56C 165.765,55.3486 164.098,55.5153 162.5,56.5C 162.167,56.1667 161.833,55.8333 161.5,55.5C 163.078,54.7022 164.744,54.2022 166.5,54C 161.167,53.3333 161.167,52.6667 166.5,52C 165.207,51.51 163.873,51.3433 162.5,51.5C 162.5,50.1667 162.5,48.8333 162.5,47.5C 167.794,47.3178 167.794,46.8178 162.5,46C 163.094,45.5357 163.761,45.369 164.5,45.5 Z"/></g>
<g><path style="opacity:1" fill="#e6a5b9" d="M 170.5,45.5 C 171.097,44.8614 171.93,44.528 173,44.5C 174.376,44.6842 175.209,45.3509 175.5,46.5C 174.523,49.2869 174.19,52.2869 174.5,55.5C 174.38,56.5862 173.713,57.2528 172.5,57.5C 169.811,57.4546 168.477,56.1213 168.5,53.5C 175.167,53.1667 175.167,52.8333 168.5,52.5C 168.5,50.5 168.5,48.5 168.5,46.5C 169.873,46.6567 171.207,46.49 172.5,46C 171.906,45.5357 171.239,45.369 170.5,45.5 Z"/></g>
<g><path style="opacity:1" fill="#e1c1d7" d="M 161.5,44.5 C 162.791,44.2627 163.791,44.596 164.5,45.5C 163.761,45.369 163.094,45.5357 162.5,46C 167.794,46.8178 167.794,47.3178 162.5,47.5C 162.5,48.8333 162.5,50.1667 162.5,51.5C 163.873,51.3433 165.207,51.51 166.5,52C 161.167,52.6667 161.167,53.3333 166.5,54C 164.744,54.2022 163.078,54.7022 161.5,55.5C 161.833,55.8333 162.167,56.1667 162.5,56.5C 164.098,55.5153 165.765,55.3486 167.5,56C 165.5,56.6667 163.5,57.3333 161.5,58C 163.112,58.7203 164.612,58.5536 166,57.5C 166.464,58.0944 166.631,58.7611 166.5,59.5C 164.5,59.5 162.5,59.5 160.5,59.5C 160.5,57.1667 160.5,54.8333 160.5,52.5C 161.473,50.0521 161.806,47.3854 161.5,44.5 Z"/></g>
<g><path style="opacity:1" fill="#f8e1e7" d="M 171.5,71.5 C 171.5,72.1667 171.5,72.8333 171.5,73.5C 168.863,74.6303 166.197,74.6303 163.5,73.5C 164.167,72.8333 164.833,72.1667 165.5,71.5C 164.972,70.2794 164.305,69.1127 163.5,68C 160.648,67.7306 157.982,66.8972 155.5,65.5C 156.073,61.7811 154.74,58.6144 151.5,56C 152,55.5 152.5,55 153,54.5C 155.503,56.4801 157.336,58.8135 158.5,61.5C 164.83,60.4193 171.163,60.2526 177.5,61C 177.043,60.586 176.709,60.086 176.5,59.5C 178.204,57.9587 180.037,56.6254 182,55.5C 182.772,55.6448 183.439,55.9781 184,56.5C 185.036,59.7527 185.703,63.086 186,66.5C 190.854,70.7942 190.021,72.1275 183.5,70.5C 183.517,66.2168 183.184,61.8835 182.5,57.5C 181.914,57.7093 181.414,58.0426 181,58.5C 180.503,60.8098 180.337,63.1432 180.5,65.5C 177.613,66.6195 174.613,67.6195 171.5,68.5C 170.833,69.5 170.167,70.5 169.5,71.5C 169.97,72.463 170.637,72.463 171.5,71.5 Z"/></g>
<g><path style="opacity:1" fill="#efe3ec" d="M 149.5,60.5 C 151.922,61.6923 152.922,63.6923 152.5,66.5C 151.968,71.6084 149.968,72.4417 146.5,69C 149.124,66.8383 150.124,64.005 149.5,60.5 Z"/></g>
<g><path style="opacity:1" fill="#fc1f15" d="M 139.5,67.5 C 140.441,69.0495 141.107,70.7162 141.5,72.5C 140.504,72.5858 139.671,72.2524 139,71.5C 138.235,69.9343 138.402,68.6009 139.5,67.5 Z"/></g>
<g><path style="opacity:1" fill="#e68fa8" d="M 139.5,67.5 C 138.402,68.6009 138.235,69.9343 139,71.5C 139.671,72.2524 140.504,72.5858 141.5,72.5C 141.833,73.8333 142.167,73.8333 142.5,72.5C 143.043,72.56 143.376,72.8933 143.5,73.5C 142.675,74.3857 141.675,74.719 140.5,74.5C 137.498,72.5318 136.832,69.8652 138.5,66.5C 139.107,66.6236 139.44,66.9569 139.5,67.5 Z"/></g>
<g><path style="opacity:1" fill="#e97a8c" d="M 171.5,71.5 C 173.153,71.6596 174.486,72.3263 175.5,73.5C 174.833,73.8333 174.167,74.1667 173.5,74.5C 172.508,74.6716 171.842,74.3382 171.5,73.5C 171.5,72.8333 171.5,72.1667 171.5,71.5 Z"/></g>
<g><path style="opacity:1" fill="#e57a92" d="M 165.5,71.5 C 164.833,72.1667 164.167,72.8333 163.5,73.5C 163.158,74.3382 162.492,74.6716 161.5,74.5C 160.833,74.1667 160.167,73.8333 159.5,73.5C 161.102,71.9261 163.102,71.2594 165.5,71.5 Z"/></g>
<g><path style="opacity:1" fill="#fc1310" d="M 163.5,73.5 C 166.197,74.6303 168.863,74.6303 171.5,73.5C 171.842,74.3382 172.508,74.6716 173.5,74.5C 174.684,75.6879 174.684,76.8545 173.5,78C 168.503,80.574 164.17,79.9073 160.5,76C 161.056,75.6174 161.389,75.1174 161.5,74.5C 162.492,74.6716 163.158,74.3382 163.5,73.5 Z"/></g>
<g><path style="opacity:1" fill="#ee5467" d="M 159.5,83.5 C 159.672,84.4916 159.338,85.1583 158.5,85.5C 158.539,84.2438 158.039,83.2438 157,82.5C 155.65,92.8679 154.816,92.5346 154.5,81.5C 156.698,81.1201 158.365,81.7868 159.5,83.5 Z"/></g>
<g><path style="opacity:1" fill="#eb404b" d="M 164.5,88.5 C 164.167,88.5 163.833,88.5 163.5,88.5C 163.068,87.2905 162.401,86.2905 161.5,85.5C 161.369,84.6236 161.702,83.9569 162.5,83.5C 163.95,84.8498 164.617,86.5165 164.5,88.5 Z"/></g>
<g><path style="opacity:1" fill="#f25057" d="M 180.5,89.5 C 179.952,87.6064 178.952,85.9397 177.5,84.5C 178.463,82.5104 179.796,82.1771 181.5,83.5C 180.833,83.8333 180.167,84.1667 179.5,84.5C 181.379,86.0697 181.712,87.7363 180.5,89.5 Z"/></g>
<g><path style="opacity:1" fill="#e5aab9" d="M 159.5,83.5 C 160.167,84.1667 160.833,84.8333 161.5,85.5C 162.401,86.2905 163.068,87.2905 163.5,88.5C 161.71,89.0134 160.044,89.5134 158.5,90C 159.161,88.1397 159.161,86.6397 158.5,85.5C 159.338,85.1583 159.672,84.4916 159.5,83.5 Z"/></g>
<g><path style="opacity:1" fill="#ed7581" d="M 170.5,86.5 C 170.539,85.2438 170.039,84.2438 169,83.5C 168.242,85.7695 168.409,87.9361 169.5,90C 168.667,90.1667 167.833,90.3333 167,90.5C 165.624,90.3158 164.791,89.6491 164.5,88.5C 165.117,88.6107 165.617,88.944 166,89.5C 166.497,87.1902 166.663,84.8568 166.5,82.5C 170.517,81.8386 171.851,83.1719 170.5,86.5 Z"/></g>
<g><path style="opacity:1" fill="#ee7176" d="M 170.5,86.5 C 171.122,87.6266 171.955,88.6266 173,89.5C 173.497,87.1902 173.663,84.8568 173.5,82.5C 174.552,82.3505 175.552,82.5172 176.5,83C 175.167,85.3333 175.167,87.6667 176.5,90C 173.421,91.0904 171.088,90.2571 169.5,87.5C 169.624,86.8933 169.957,86.56 170.5,86.5 Z"/></g>
<g><path style="opacity:1" fill="#cd5a8f" d="M 180.5,89.5 C 179.614,90.7759 178.614,90.7759 177.5,89.5C 178.233,88.913 179.233,88.913 180.5,89.5 Z"/></g>
<g><path style="opacity:1" fill="#fd0e0b" d="M 25.5,98.5 C 36.0874,96.3609 44.7541,99.3609 51.5,107.5C 49.4759,109.358 47.3092,111.025 45,112.5C 39.3842,106.167 32.7175,104.834 25,108.5C 22.7781,111.51 23.2781,114.01 26.5,116C 32.8765,117.511 39.2099,119.177 45.5,121C 52.7143,126.096 54.2143,132.596 50,140.5C 45.2066,145.268 39.3733,147.601 32.5,147.5C 24.0839,147.79 17.4173,144.624 12.5,138C 14.4704,135.684 16.8037,133.851 19.5,132.5C 25.0715,139.408 32.0715,141.241 40.5,138C 44.8617,133.738 44.1951,130.404 38.5,128C 31.1341,127.288 24.3007,125.121 18,121.5C 12.3568,111.049 14.8568,103.383 25.5,98.5 Z"/></g>
<g><path style="opacity:1" fill="#fe0606" d="M 268.5,130.5 C 267.513,135.305 267.179,140.305 267.5,145.5C 264.833,145.5 262.167,145.5 259.5,145.5C 259.5,130.167 259.5,114.833 259.5,99.5C 267.507,99.3336 275.507,99.5003 283.5,100C 293.799,105.626 296.299,113.793 291,124.5C 288.612,127.634 285.446,129.467 281.5,130C 277.179,130.499 272.846,130.666 268.5,130.5 Z"/></g>
<g><path style="opacity:1" fill="#ce3b82" d="M 93.5,100.5 C 91.1667,100.5 88.8333,100.5 86.5,100.5C 86.7947,102.735 86.4614,104.735 85.5,106.5C 85.5,104.167 85.5,101.833 85.5,99.5C 88.3854,99.1936 91.0521,99.5269 93.5,100.5 Z"/></g>
<g><path style="opacity:1" fill="#fe0002" d="M 93.5,100.5 C 93.5,102.833 93.5,105.167 93.5,107.5C 90.6146,107.806 87.9479,107.473 85.5,106.5C 86.4614,104.735 86.7947,102.735 86.5,100.5C 88.8333,100.5 91.1667,100.5 93.5,100.5 Z"/></g>
<g><path style="opacity:1" fill="#d7748f" d="M 268.5,106.5 C 268.5,111.833 268.5,117.167 268.5,122.5C 271.833,122.5 275.167,122.5 278.5,122.5C 275.038,123.482 271.371,123.815 267.5,123.5C 267.178,117.642 267.511,111.975 268.5,106.5 Z"/></g>
<g><path style="opacity:1" fill="#fbf9fb" d="M 268.5,106.5 C 272.182,106.335 275.848,106.501 279.5,107C 281.002,107.583 282.335,108.416 283.5,109.5C 284.585,112.773 284.752,116.106 284,119.5C 282.736,121.607 280.903,122.607 278.5,122.5C 275.167,122.5 271.833,122.5 268.5,122.5C 268.5,117.167 268.5,111.833 268.5,106.5 Z"/></g>
<g><path style="opacity:1" fill="#fd0e0c" d="M 63.5,112.5 C 72.6203,110.401 79.6203,113.235 84.5,121C 82.1667,122.167 79.8333,123.333 77.5,124.5C 74.7868,119.812 70.7868,118.312 65.5,120C 60.5444,125.706 60.2111,131.706 64.5,138C 70.6704,141.006 75.337,139.506 78.5,133.5C 80.3359,134.919 82.3359,136.086 84.5,137C 80.0822,145.812 73.0822,148.812 63.5,146C 56.7652,142.698 53.4319,137.198 53.5,129.5C 54.0145,122.133 57.3479,116.466 63.5,112.5 Z"/></g>
<g><path style="opacity:1" fill="#fd0c0d" d="M 107.5,112.5 C 121.8,110.801 128.8,117.135 128.5,131.5C 120.493,131.334 112.493,131.5 104.5,132C 106.71,139.044 111.377,141.378 118.5,139C 121.987,134.428 125.321,134.595 128.5,139.5C 121.061,147.753 112.394,149.253 102.5,144C 97.1827,138.574 95.3493,132.074 97,124.5C 98.2424,118.43 101.742,114.43 107.5,112.5 Z"/></g>
<g><path style="opacity:1" fill="#fe0405" d="M 159.5,120.5 C 159.5,128.833 159.5,137.167 159.5,145.5C 157.167,145.5 154.833,145.5 152.5,145.5C 152.666,137.826 152.5,130.159 152,122.5C 146.113,117.809 142.113,119.142 140,126.5C 139.5,133.158 139.334,139.825 139.5,146.5C 136.833,146.5 134.167,146.5 131.5,146.5C 131.5,135.5 131.5,124.5 131.5,113.5C 134.167,113.5 136.833,113.5 139.5,113.5C 139.351,114.552 139.517,115.552 140,116.5C 144.091,112.695 148.924,111.528 154.5,113C 157.789,114.41 159.456,116.91 159.5,120.5 Z"/></g>
<g><path style="opacity:1" fill="#fd0e0b" d="M 173.5,112.5 C 181.804,110.923 188.138,113.59 192.5,120.5C 189.344,124.837 186.344,125.003 183.5,121C 179.206,118.614 175.373,119.114 172,122.5C 169.39,128.608 170.224,134.108 174.5,139C 180.348,140.957 184.348,139.124 186.5,133.5C 193.757,135.57 194.424,139.07 188.5,144C 179.781,149.031 171.947,147.865 165,140.5C 159.55,128.365 162.383,119.032 173.5,112.5 Z"/></g>
<g><path style="opacity:1" fill="#fc0e0f" d="M 203.5,112.5 C 218.304,110.309 225.638,116.642 225.5,131.5C 217.472,131.169 209.472,131.502 201.5,132.5C 206.134,140.736 212.134,141.736 219.5,135.5C 221.664,136.414 223.664,137.581 225.5,139C 216.215,149.801 206.381,150.301 196,140.5C 192.667,133.167 192.667,125.833 196,118.5C 198.114,115.879 200.614,113.879 203.5,112.5 Z"/></g>
<g><path style="opacity:1" fill="#fd0c0c" d="M 235.5,112.5 C 243.154,111.174 249.82,113.008 255.5,118C 253.667,119.833 251.833,121.667 250,123.5C 247.103,118.845 242.937,117.345 237.5,119C 234.674,121.522 235.007,123.522 238.5,125C 243.958,125.622 249.125,127.122 254,129.5C 258.071,136.876 256.238,142.376 248.5,146C 240.338,148.253 233.005,146.753 226.5,141.5C 228.955,135.896 231.955,135.396 235.5,140C 238.5,140.667 241.5,140.667 244.5,140C 248.5,138 248.5,136 244.5,134C 237.972,133.511 232.472,131.011 228,126.5C 226.412,119.599 228.912,114.932 235.5,112.5 Z"/></g>
<g><path style="opacity:1" fill="#fd0a09" d="M 303.5,112.5 C 321.611,111.444 328.778,119.777 325,137.5C 318.594,147.386 310.094,149.553 299.5,144C 292.105,136.357 290.938,127.857 296,118.5C 298.114,115.879 300.614,113.879 303.5,112.5 Z"/></g>
<g><path style="opacity:1" fill="#c2378e" d="M 86.5,113.5 C 86.5,124.167 86.5,134.833 86.5,145.5C 88.8333,145.5 91.1667,145.5 93.5,145.5C 91.0521,146.473 88.3854,146.806 85.5,146.5C 85.1721,135.321 85.5054,124.321 86.5,113.5 Z"/></g>
<g><path style="opacity:1" fill="#fe0000" d="M 86.5,113.5 C 88.8333,113.5 91.1667,113.5 93.5,113.5C 93.5,124.167 93.5,134.833 93.5,145.5C 91.1667,145.5 88.8333,145.5 86.5,145.5C 86.5,134.833 86.5,124.167 86.5,113.5 Z"/></g>
<g><path style="opacity:1" fill="#fcecee" d="M 108.5,118.5 C 114.345,117.039 118.345,119.039 120.5,124.5C 115.544,125.494 110.544,125.827 105.5,125.5C 105.15,122.547 106.15,120.213 108.5,118.5 Z"/></g>
<g><path style="opacity:1" fill="#fbf0f2" d="M 206.5,118.5 C 212.468,117.459 215.801,119.792 216.5,125.5C 211.456,125.827 206.456,125.494 201.5,124.5C 202.497,121.845 204.164,119.845 206.5,118.5 Z"/></g>
<g><path style="opacity:1" fill="#fbf6f8" d="M 305.5,119.5 C 315.408,118.912 319.574,123.578 318,133.5C 315.646,139.095 311.479,140.928 305.5,139C 298.914,132.506 298.914,126.006 305.5,119.5 Z"/></g>
<g><path style="opacity:1" fill="#e83449" d="M 159.5,120.5 C 160.493,128.984 160.826,137.651 160.5,146.5C 157.615,146.806 154.948,146.473 152.5,145.5C 154.833,145.5 157.167,145.5 159.5,145.5C 159.5,137.167 159.5,128.833 159.5,120.5 Z"/></g>
<g><path style="opacity:1" fill="#c76089" d="M 268.5,130.5 C 268.5,135.833 268.5,141.167 268.5,146.5C 265.287,146.81 262.287,146.477 259.5,145.5C 262.167,145.5 264.833,145.5 267.5,145.5C 267.179,140.305 267.513,135.305 268.5,130.5 Z"/></g>
</svg>
